/* XPM */
static char * close_active_xpm[] = {
"16 16 103 2",
"  	c None",
". 	c #747474",
"+ 	c #FFFFFF",
"@ 	c #FEFEFE",
"# 	c #FCFCFC",
"$ 	c #FAFAFA",
"% 	c #A8A87E",
"& 	c #000000",
"* 	c #9E9D81",
"= 	c #F4F4F4",
"- 	c #EDEDE4",
"; 	c #9A9939",
"> 	c #FAF970",
", 	c #FFFE53",
"' 	c #FFFD2E",
") 	c #F5F207",
"! 	c #A4A202",
"~ 	c #EDEDEC",
"{ 	c #D3D27F",
"] 	c #FFFEB2",
"^ 	c #FFFE93",
"/ 	c #FFFD6D",
"( 	c #FFFB44",
"_ 	c #FFFA1A",
": 	c #FFF900",
"< 	c #D3CE00",
"[ 	c #F7F7F7",
"} 	c #F9F9F9",
"| 	c #9F9E7F",
"1 	c #A4A33A",
"2 	c #FFFEC5",
"3 	c #FFFDA5",
"4 	c #FFFB7A",
"5 	c #FFF74E",
"6 	c #FFF523",
"7 	c #FFF500",
"8 	c #999504",
"9 	c #A5A494",
"0 	c #F8F8F8",
"a 	c #F5F47F",
"b 	c #FFFEA8",
"c 	c #FFFDB1",
"d 	c #FFF775",
"e 	c #FFF24C",
"f 	c #FFEC00",
"g 	c #FFEE00",
"h 	c #FAEC00",
"i 	c #F6F6F6",
"j 	c #FFFD67",
"k 	c #FFFC7F",
"l 	c #FFFA86",
"m 	c #FFF77A",
"n 	c #FFE519",
"o 	c #FFE200",
"p 	c #FFE500",
"q 	c #FFEB00",
"r 	c #F5F5F5",
"s 	c #FFFB42",
"t 	c #FFF954",
"u 	c #FFF55B",
"v 	c #FFF054",
"w 	c #FFD706",
"x 	c #FFD600",
"y 	c #FFDC00",
"z 	c #FFE300",
"A 	c #FAF517",
"B 	c #FFF629",
"C 	c #FFF02F",
"D 	c #FFDE1E",
"E 	c #FFD008",
"F 	c #FFC900",
"G 	c #FFD300",
"H 	c #F5D500",
"I 	c #F2F2F2",
"J 	c #A2A294",
"K 	c #99950C",
"L 	c #FFF300",
"M 	c #FFE201",
"N 	c #FFC800",
"O 	c #FFB900",
"P 	c #FFCD00",
"Q 	c #A29110",
"R 	c #999996",
"S 	c #F1F1F1",
"T 	c #EFEFEF",
"U 	c #D3C900",
"V 	c #FFBE00",
"W 	c #FFC200",
"X 	c #D3AE01",
"Y 	c #EAEAEA",
"Z 	c #F0F0F0",
"` 	c #E1E1E1",
" .	c #A3980D",
"..	c #F5DC00",
"+.	c #FAC900",
"@.	c #98840F",
"#.	c #EEEEEE",
"$.	c #E8E8E8",
"%.	c #979690",
"&.	c #9E9E9D",
"*.	c #ECECEC",
"=.	c #EDEDED",
"-.	c #EBEBEB",
". . . . . . . . . . .           ",
"+ + + + + + + + + + @ . .       ",
"# # # # $ % & & & & * = # .     ",
"# # # - & ; > , ' ) ! & ~ # .   ",
"$ $ = & { ] ^ / ( _ : < & [ .   ",
"} } | 1 2 & 3 4 5 6 & 7 8 9 } . ",
"0 0 & a b c & d e & f g h & 0 . ",
"i i & j k l m & & n o p q & i . ",
"r r & s t u v & & w x y z & r . ",
"= = & A B C & D E & F G H & = . ",
"I I J K L & M x N O & P Q R I . ",
"S S T & U f o x F V W X & Y S . ",
"Z Z Z ` &  ...y G +.@.& ` Z Z . ",
"#.#.#.#.$.%.& & & & &.*.#.#.#.. ",
"=.=.=.=.=.=.=.=.=.=.=.=.=.=.=.. ",
". . . . . . . . . . . . . . -.. "};
