/* XPM */
static char * close_inactive_xpm[] = {
"16 16 101 2",
"  	c None",
". 	c #747474",
"+ 	c #FFFFFF",
"@ 	c #FEFEFE",
"# 	c #FCFCFC",
"$ 	c #FAFAFA",
"% 	c #9C9C7E",
"& 	c #000000",
"* 	c #959581",
"= 	c #F4F4F4",
"- 	c #EAEAE4",
"; 	c #706F29",
"> 	c #B5B451",
", 	c #B9B83C",
"' 	c #B9B721",
") 	c #B1AF05",
"! 	c #777602",
"~ 	c #ECECEC",
"{ 	c #99985C",
"] 	c #B9B881",
"^ 	c #B9B86A",
"/ 	c #B9B74F",
"( 	c #B9B631",
"_ 	c #B9B513",
": 	c #B9B400",
"< 	c #999500",
"[ 	c #F7F7F7",
"} 	c #F9F9F9",
"| 	c #96967F",
"1 	c #77762A",
"2 	c #B9B88F",
"3 	c #B9B778",
"4 	c #B9B658",
"5 	c #B9B339",
"6 	c #B9B119",
"7 	c #B9B100",
"8 	c #706D04",
"9 	c #A0A094",
"0 	c #F8F8F8",
"a 	c #B1B15C",
"b 	c #B9B87A",
"c 	c #B9B780",
"d 	c #B9B355",
"e 	c #B9AF37",
"f 	c #B9AB00",
"g 	c #B9AC00",
"h 	c #B5AB00",
"i 	c #F6F6F6",
"j 	c #B9B74B",
"k 	c #B9B75C",
"l 	c #B9B561",
"m 	c #B9B358",
"n 	c #B9A612",
"o 	c #B9A400",
"p 	c #B9A600",
"q 	c #B9AA00",
"r 	c #F5F5F5",
"s 	c #B9B630",
"t 	c #B9B43D",
"u 	c #B9B142",
"v 	c #B9AE3D",
"w 	c #B99C04",
"x 	c #B99B00",
"y 	c #B99F00",
"z 	c #B5B111",
"A 	c #B9B21E",
"B 	c #B9AE22",
"C 	c #B9A116",
"D 	c #B99706",
"E 	c #B99200",
"F 	c #B99900",
"G 	c #B19A00",
"H 	c #F2F2F2",
"I 	c #9E9E94",
"J 	c #726F0C",
"K 	c #B9B000",
"L 	c #B9A401",
"M 	c #B99100",
"N 	c #B98600",
"O 	c #B99500",
"P 	c #7A6E10",
"Q 	c #989896",
"R 	c #F1F1F1",
"S 	c #EFEFEF",
"T 	c #999200",
"U 	c #B98A00",
"V 	c #B98D00",
"W 	c #997E01",
"X 	c #EAEAEA",
"Y 	c #F0F0F0",
"Z 	c #E1E1E1",
"` 	c #79710D",
" .	c #B19F00",
"..	c #B59200",
"+.	c #72640F",
"@.	c #EEEEEE",
"#.	c #E8E8E8",
"$.	c #959590",
"%.	c #9E9E9D",
"&.	c #EDEDED",
"*.	c #EBEBEB",
". . . . . . . . . . .           ",
"+ + + + + + + + + + @ . .       ",
"# # # # $ % & & & & * = # .     ",
"# # # - & ; > , ' ) ! & ~ # .   ",
"$ $ = & { ] ^ / ( _ : < & [ .   ",
"} } | 1 2 & 3 4 5 6 & 7 8 9 } . ",
"0 0 & a b c & d e & f g h & 0 . ",
"i i & j k l m & & n o p q & i . ",
"r r & s t u v & & w x y o & r . ",
"= = & z A B & C D & E F G & = . ",
"H H I J K & L x M N & O P Q H . ",
"R R S & T f o x E U V W & X R . ",
"Y Y Y Z & `  .y F ..+.& Z Y Y . ",
"@.@.@.@.#.$.& & & & %.~ @.@.@.. ",
"&.&.&.&.&.&.&.&.&.&.&.&.&.&.&.. ",
". . . . . . . . . . . . . . *.. "};
