/* XPM */
static char * hide_inactive_xpm[] = {
"14 16 106 2",
"  	c None",
". 	c #747474",
"+ 	c #FFFFFF",
"@ 	c #FCFCFC",
"# 	c #FAFAFA",
"$ 	c #A8A87E",
"% 	c #000000",
"& 	c #A09F83",
"* 	c #F6F6F6",
"= 	c #EDEDE4",
"- 	c #9A9939",
"; 	c #FAF970",
"> 	c #FFFE53",
", 	c #FFFD2E",
"' 	c #F5F207",
") 	c #A4A202",
"! 	c #EDEDEC",
"~ 	c #F4F4F4",
"{ 	c #D3D27F",
"] 	c #FFFEB2",
"^ 	c #FFFE93",
"/ 	c #FFFD6D",
"( 	c #FFFB44",
"_ 	c #FFFA1A",
": 	c #FFF900",
"< 	c #D3CE00",
"[ 	c #F8F8F8",
"} 	c #F9F9F9",
"| 	c #9F9E7F",
"1 	c #A4A33A",
"2 	c #FFFEC5",
"3 	c #FFFED0",
"4 	c #FFFDA5",
"5 	c #FFFB7A",
"6 	c #FFF74E",
"7 	c #FFF523",
"8 	c #FFF300",
"9 	c #FFF500",
"0 	c #999504",
"a 	c #A6A595",
"b 	c #F5F47F",
"c 	c #FFFEA8",
"d 	c #FFFDB1",
"e 	c #FFFB99",
"f 	c #FFF775",
"g 	c #FFF24C",
"h 	c #FFEF23",
"i 	c #FFEC00",
"j 	c #FFEE00",
"k 	c #FAEC00",
"l 	c #FFFD67",
"m 	c #FFFC7F",
"n 	c #FFFA86",
"o 	c #FFF77A",
"p 	c #FFF260",
"q 	c #FFEB3E",
"r 	c #FFE519",
"s 	c #FFE200",
"t 	c #FFE500",
"u 	c #FFEB00",
"v 	c #F5F5F5",
"w 	c #FFFB42",
"x 	c #FFF954",
"y 	c #FFF55B",
"z 	c #FFF054",
"A 	c #FFE941",
"B 	c #FFE026",
"C 	c #FFD706",
"D 	c #FFD600",
"E 	c #FFDC00",
"F 	c #FFE300",
"G 	c #FAF517",
"H 	c #FFF629",
"I 	c #FFF02F",
"J 	c #FFE92B",
"K 	c #FFDE1E",
"L 	c #FFD008",
"M 	c #FFC800",
"N 	c #FFC900",
"O 	c #FFD300",
"P 	c #F5D500",
"Q 	c #F2F2F2",
"R 	c #A2A294",
"S 	c #99950C",
"T 	c #FFCD00",
"U 	c #A29110",
"V 	c #999996",
"W 	c #F1F1F1",
"X 	c #EFEFEF",
"Y 	c #D3C900",
"Z 	c #FFBE00",
"` 	c #FFC200",
" .	c #D3AE01",
"..	c #EBEBEB",
"+.	c #F0F0F0",
"@.	c #E1E1E1",
"#.	c #A3980D",
"$.	c #F5DC00",
"%.	c #FAC900",
"&.	c #98840F",
"*.	c #EEEEEE",
"=.	c #E8E8E8",
"-.	c #979690",
";.	c #9E9E9D",
">.	c #ECECEC",
",.	c #EDEDED",
". . . . . . . . . . . . . . ",
"+ + + + + + + + + + + + + + ",
"@ @ @ # $ % % % % & * @ @ @ ",
"@ @ = % - ; > , ' ) % ! @ @ ",
"# ~ % { ] ^ / ( _ : < % [ # ",
"} | 1 2 3 4 5 6 7 8 9 0 a } ",
"[ % b c d e f g h i j k % [ ",
"* % l m n o p q r s t u % * ",
"v % w x y z A B C D E F % v ",
"~ % G H I J K L M N O P % ~ ",
"Q R S 8 % % % % % % T U V Q ",
"W X % Y i s D N Z `  .% ..W ",
"+.+.@.% #.$.E O %.&.% @.+.+.",
"*.*.*.=.-.% % % % ;.>.*.*.*.",
",.,.,.,.,.,.,.,.,.,.,.,.,.,.",
". . . . . . . . . . . . . . "};
