/* XPM */
static char * hide_inactive_xpm[] = {
"14 16 104 2",
"  	c None",
". 	c #747474",
"+ 	c #FFFFFF",
"@ 	c #FCFCFC",
"# 	c #FAFAFA",
"$ 	c #9C9C7E",
"% 	c #000000",
"& 	c #989883",
"* 	c #F6F6F6",
"= 	c #EAEAE4",
"- 	c #706F29",
"; 	c #B5B451",
"> 	c #B9B83C",
", 	c #B9B721",
"' 	c #B1AF05",
") 	c #777602",
"! 	c #ECECEC",
"~ 	c #F4F4F4",
"{ 	c #99985C",
"] 	c #B9B881",
"^ 	c #B9B86A",
"/ 	c #B9B74F",
"( 	c #B9B631",
"_ 	c #B9B513",
": 	c #B9B400",
"< 	c #999500",
"[ 	c #F8F8F8",
"} 	c #F9F9F9",
"| 	c #96967F",
"1 	c #77762A",
"2 	c #B9B88F",
"3 	c #B9B897",
"4 	c #B9B778",
"5 	c #B9B658",
"6 	c #B9B339",
"7 	c #B9B119",
"8 	c #B9B000",
"9 	c #B9B100",
"0 	c #706D04",
"a 	c #A1A195",
"b 	c #B1B15C",
"c 	c #B9B87A",
"d 	c #B9B780",
"e 	c #B9B66F",
"f 	c #B9B355",
"g 	c #B9AF37",
"h 	c #B9AD19",
"i 	c #B9AB00",
"j 	c #B9AC00",
"k 	c #B5AB00",
"l 	c #B9B74B",
"m 	c #B9B75C",
"n 	c #B9B561",
"o 	c #B9B358",
"p 	c #B9AF46",
"q 	c #B9AA2D",
"r 	c #B9A612",
"s 	c #B9A400",
"t 	c #B9A600",
"u 	c #B9AA00",
"v 	c #F5F5F5",
"w 	c #B9B630",
"x 	c #B9B43D",
"y 	c #B9B142",
"z 	c #B9AE3D",
"A 	c #B9A92F",
"B 	c #B9A21C",
"C 	c #B99C04",
"D 	c #B99B00",
"E 	c #B99F00",
"F 	c #B5B111",
"G 	c #B9B21E",
"H 	c #B9AE22",
"I 	c #B9A91F",
"J 	c #B9A116",
"K 	c #B99706",
"L 	c #B99100",
"M 	c #B99200",
"N 	c #B99900",
"O 	c #B19A00",
"P 	c #F2F2F2",
"Q 	c #9E9E94",
"R 	c #726F0C",
"S 	c #B99500",
"T 	c #7A6E10",
"U 	c #989896",
"V 	c #F1F1F1",
"W 	c #EFEFEF",
"X 	c #999200",
"Y 	c #B98A00",
"Z 	c #B98D00",
"` 	c #997E01",
" .	c #EBEBEB",
"..	c #F0F0F0",
"+.	c #E1E1E1",
"@.	c #79710D",
"#.	c #B19F00",
"$.	c #B59200",
"%.	c #72640F",
"&.	c #EEEEEE",
"*.	c #E8E8E8",
"=.	c #959590",
"-.	c #9E9E9D",
";.	c #EDEDED",
". . . . . . . . . . . . . . ",
"+ + + + + + + + + + + + + + ",
"@ @ @ # $ % % % % & * @ @ @ ",
"@ @ = % - ; > , ' ) % ! @ @ ",
"# ~ % { ] ^ / ( _ : < % [ # ",
"} | 1 2 3 4 5 6 7 8 9 0 a } ",
"[ % b c d e f g h i j k % [ ",
"* % l m n o p q r s t u % * ",
"v % w x y z A B C D E s % v ",
"~ % F G H I J K L M N O % ~ ",
"P Q R 8 % % % % % % S T U P ",
"V W % X i s D M Y Z ` %  .V ",
"....+.% @.#.E N $.%.% +.....",
"&.&.&.*.=.% % % % -.! &.&.&.",
";.;.;.;.;.;.;.;.;.;.;.;.;.;.",
". . . . . . . . . . . . . . "};
