/* XPM */
static char * maximize_inactive_xpm[] = {
"14 16 95 2",
"  	c None",
". 	c #747474",
"+ 	c #FFFFFF",
"@ 	c #FCFCFC",
"# 	c #FAFAFA",
"$ 	c #9C9C7E",
"% 	c #000000",
"& 	c #989883",
"* 	c #F6F6F6",
"= 	c #EAEAE4",
"- 	c #706F29",
"; 	c #B5B451",
"> 	c #B9B83C",
", 	c #B9B721",
"' 	c #B1AF05",
") 	c #777602",
"! 	c #ECECEC",
"~ 	c #F4F4F4",
"{ 	c #99985C",
"] 	c #B9B881",
"^ 	c #B9B86A",
"/ 	c #B9B74F",
"( 	c #B9B631",
"_ 	c #B9B513",
": 	c #B9B400",
"< 	c #999500",
"[ 	c #F8F8F8",
"} 	c #F9F9F9",
"| 	c #96967F",
"1 	c #77762A",
"2 	c #B9B88F",
"3 	c #B9B100",
"4 	c #706D04",
"5 	c #A1A195",
"6 	c #B1B15C",
"7 	c #B9B87A",
"8 	c #B9B66F",
"9 	c #B9B355",
"0 	c #B9AF37",
"a 	c #B9AD19",
"b 	c #B9AC00",
"c 	c #B5AB00",
"d 	c #B9B74B",
"e 	c #B9B75C",
"f 	c #B9B358",
"g 	c #B9AF46",
"h 	c #B9AA2D",
"i 	c #B9A612",
"j 	c #B9A600",
"k 	c #B9AA00",
"l 	c #F5F5F5",
"m 	c #B9B630",
"n 	c #B9B43D",
"o 	c #B9AE3D",
"p 	c #B9A92F",
"q 	c #B9A21C",
"r 	c #B99C04",
"s 	c #B99F00",
"t 	c #B9A400",
"u 	c #B5B111",
"v 	c #B9B21E",
"w 	c #B9A91F",
"x 	c #B9A116",
"y 	c #B99706",
"z 	c #B99100",
"A 	c #B99900",
"B 	c #B19A00",
"C 	c #F2F2F2",
"D 	c #9E9E94",
"E 	c #726F0C",
"F 	c #B9B000",
"G 	c #B99500",
"H 	c #7A6E10",
"I 	c #989896",
"J 	c #F1F1F1",
"K 	c #EFEFEF",
"L 	c #999200",
"M 	c #B9AB00",
"N 	c #B99B00",
"O 	c #B99200",
"P 	c #B98A00",
"Q 	c #B98D00",
"R 	c #997E01",
"S 	c #EBEBEB",
"T 	c #F0F0F0",
"U 	c #E1E1E1",
"V 	c #79710D",
"W 	c #B19F00",
"X 	c #B59200",
"Y 	c #72640F",
"Z 	c #EEEEEE",
"` 	c #E8E8E8",
" .	c #959590",
"..	c #9E9E9D",
"+.	c #EDEDED",
". . . . . . . . . . . . . . ",
"+ + + + + + + + + + + + + + ",
"@ @ @ # $ % % % % & * @ @ @ ",
"@ @ = % - ; > , ' ) % ! @ @ ",
"# ~ % { ] ^ / ( _ : < % [ # ",
"} | 1 2 % % % % % % 3 4 5 } ",
"[ % 6 7 % 8 9 0 a % b c % [ ",
"* % d e % f g h i % j k % * ",
"l % m n % o p q r % s t % l ",
"~ % u v % w x y z % A B % ~ ",
"C D E F % % % % % % G H I C ",
"J K % L M t N O P Q R % S J ",
"T T U % V W s A X Y % U T T ",
"Z Z Z `  .% % % % ..! Z Z Z ",
"+.+.+.+.+.+.+.+.+.+.+.+.+.+.",
". . . . . . . . . . . . . . "};
