/* XPM */
static char * maximize_active_xpm[] = {
"14 16 97 2",
"  	c None",
". 	c #747474",
"+ 	c #FFFFFF",
"@ 	c #FCFCFC",
"# 	c #FAFAFA",
"$ 	c #A8A87E",
"% 	c #000000",
"& 	c #A09F83",
"* 	c #F6F6F6",
"= 	c #EDEDE4",
"- 	c #9A9939",
"; 	c #FAF970",
"> 	c #FFFE53",
", 	c #FFFD2E",
"' 	c #F5F207",
") 	c #A4A202",
"! 	c #EDEDEC",
"~ 	c #F4F4F4",
"{ 	c #D3D27F",
"] 	c #FFFEB2",
"^ 	c #FFFE93",
"/ 	c #FFFD6D",
"( 	c #FFFB44",
"_ 	c #FFFA1A",
": 	c #FFF900",
"< 	c #D3CE00",
"[ 	c #F8F8F8",
"} 	c #F9F9F9",
"| 	c #9F9E7F",
"1 	c #A4A33A",
"2 	c #FFFEC5",
"3 	c #FFF500",
"4 	c #999504",
"5 	c #A6A595",
"6 	c #F5F47F",
"7 	c #FFFEA8",
"8 	c #FFFB99",
"9 	c #FFF775",
"0 	c #FFF24C",
"a 	c #FFEF23",
"b 	c #FFEE00",
"c 	c #FAEC00",
"d 	c #FFFD67",
"e 	c #FFFC7F",
"f 	c #FFF77A",
"g 	c #FFF260",
"h 	c #FFEB3E",
"i 	c #FFE519",
"j 	c #FFE500",
"k 	c #FFEB00",
"l 	c #F5F5F5",
"m 	c #FFFB42",
"n 	c #FFF954",
"o 	c #FFF054",
"p 	c #FFE941",
"q 	c #FFE026",
"r 	c #FFD706",
"s 	c #FFDC00",
"t 	c #FFE300",
"u 	c #FAF517",
"v 	c #FFF629",
"w 	c #FFE92B",
"x 	c #FFDE1E",
"y 	c #FFD008",
"z 	c #FFC800",
"A 	c #FFD300",
"B 	c #F5D500",
"C 	c #F2F2F2",
"D 	c #A2A294",
"E 	c #99950C",
"F 	c #FFF300",
"G 	c #FFCD00",
"H 	c #A29110",
"I 	c #999996",
"J 	c #F1F1F1",
"K 	c #EFEFEF",
"L 	c #D3C900",
"M 	c #FFEC00",
"N 	c #FFE200",
"O 	c #FFD600",
"P 	c #FFC900",
"Q 	c #FFBE00",
"R 	c #FFC200",
"S 	c #D3AE01",
"T 	c #EBEBEB",
"U 	c #F0F0F0",
"V 	c #E1E1E1",
"W 	c #A3980D",
"X 	c #F5DC00",
"Y 	c #FAC900",
"Z 	c #98840F",
"` 	c #EEEEEE",
" .	c #E8E8E8",
"..	c #979690",
"+.	c #9E9E9D",
"@.	c #ECECEC",
"#.	c #EDEDED",
". . . . . . . . . . . . . . ",
"+ + + + + + + + + + + + + + ",
"@ @ @ # $ % % % % & * @ @ @ ",
"@ @ = % - ; > , ' ) % ! @ @ ",
"# ~ % { ] ^ / ( _ : < % [ # ",
"} | 1 2 % % % % % % 3 4 5 } ",
"[ % 6 7 % 8 9 0 a % b c % [ ",
"* % d e % f g h i % j k % * ",
"l % m n % o p q r % s t % l ",
"~ % u v % w x y z % A B % ~ ",
"C D E F % % % % % % G H I C ",
"J K % L M N O P Q R S % T J ",
"U U V % W X s A Y Z % V U U ",
"` ` `  ...% % % % +.@.` ` ` ",
"#.#.#.#.#.#.#.#.#.#.#.#.#.#.",
". . . . . . . . . . . . . . "};
