/* XPM */
static char * menu_inactive_xpm[] = {
"14 16 97 2",
"  	c None",
". 	c #747474",
"+ 	c #FFFFFF",
"@ 	c #FCFCFC",
"# 	c #FAFAFA",
"$ 	c #9C9C7E",
"% 	c #000000",
"& 	c #989883",
"* 	c #F6F6F6",
"= 	c #EAEAE4",
"- 	c #706F29",
"; 	c #B5B451",
"> 	c #B9B83C",
", 	c #B9B721",
"' 	c #B1AF05",
") 	c #777602",
"! 	c #ECECEC",
"~ 	c #F4F4F4",
"{ 	c #99985C",
"] 	c #B9B881",
"^ 	c #B9B86A",
"/ 	c #B9B74F",
"( 	c #B9B631",
"_ 	c #B9B513",
": 	c #B9B400",
"< 	c #999500",
"[ 	c #F8F8F8",
"} 	c #F9F9F9",
"| 	c #96967F",
"1 	c #77762A",
"2 	c #B9B88F",
"3 	c #B9B897",
"4 	c #B9B778",
"5 	c #B9B658",
"6 	c #B9B339",
"7 	c #B9B119",
"8 	c #B9B000",
"9 	c #B9B100",
"0 	c #706D04",
"a 	c #A1A195",
"b 	c #B1B15C",
"c 	c #B9B87A",
"d 	c #B9AC00",
"e 	c #B5AB00",
"f 	c #B9B74B",
"g 	c #B9B75C",
"h 	c #B9B358",
"i 	c #B9AF46",
"j 	c #B9AA2D",
"k 	c #B9A612",
"l 	c #B9A600",
"m 	c #B9AA00",
"n 	c #F5F5F5",
"o 	c #B9B630",
"p 	c #B9B43D",
"q 	c #B9B142",
"r 	c #B9A92F",
"s 	c #B9A21C",
"t 	c #B99B00",
"u 	c #B99F00",
"v 	c #B9A400",
"w 	c #B5B111",
"x 	c #B9B21E",
"y 	c #B9AE22",
"z 	c #B9A91F",
"A 	c #B99100",
"B 	c #B99200",
"C 	c #B99900",
"D 	c #B19A00",
"E 	c #F2F2F2",
"F 	c #9E9E94",
"G 	c #726F0C",
"H 	c #B9AA02",
"I 	c #B9A401",
"J 	c #B98600",
"K 	c #B98A00",
"L 	c #B99500",
"M 	c #7A6E10",
"N 	c #989896",
"O 	c #F1F1F1",
"P 	c #EFEFEF",
"Q 	c #999200",
"R 	c #B9AB00",
"S 	c #B98D00",
"T 	c #997E01",
"U 	c #EBEBEB",
"V 	c #F0F0F0",
"W 	c #E1E1E1",
"X 	c #79710D",
"Y 	c #B19F00",
"Z 	c #B59200",
"` 	c #72640F",
" .	c #EEEEEE",
"..	c #E8E8E8",
"+.	c #959590",
"@.	c #9E9E9D",
"#.	c #EDEDED",
". . . . . . . . . . . . . . ",
"+ + + + + + + + + + + + + + ",
"@ @ @ # $ % % % % & * @ @ @ ",
"@ @ = % - ; > , ' ) % ! @ @ ",
"# ~ % { ] ^ / ( _ : < % [ # ",
"} | 1 2 3 4 5 6 7 8 9 0 a } ",
"[ % b c % % % % % % d e % [ ",
"* % f g % h i j k % l m % * ",
"n % o p q % r s % t u v % n ",
"~ % w x y z % % A B C D % ~ ",
"E F G 8 H I t A J K L M N E ",
"O P % Q R v t B K S T % U O ",
"V V W % X Y u C Z ` % W V V ",
" . . ...+.% % % % @.!  . . .",
"#.#.#.#.#.#.#.#.#.#.#.#.#.#.",
". . . . . . . . . . . . . . "};
