/* XPM */
static char * menu_active_xpm[] = {
"14 16 99 2",
"  	c None",
". 	c #747474",
"+ 	c #FFFFFF",
"@ 	c #FCFCFC",
"# 	c #FAFAFA",
"$ 	c #A8A87E",
"% 	c #000000",
"& 	c #A09F83",
"* 	c #F6F6F6",
"= 	c #EDEDE4",
"- 	c #9A9939",
"; 	c #FAF970",
"> 	c #FFFE53",
", 	c #FFFD2E",
"' 	c #F5F207",
") 	c #A4A202",
"! 	c #EDEDEC",
"~ 	c #F4F4F4",
"{ 	c #D3D27F",
"] 	c #FFFEB2",
"^ 	c #FFFE93",
"/ 	c #FFFD6D",
"( 	c #FFFB44",
"_ 	c #FFFA1A",
": 	c #FFF900",
"< 	c #D3CE00",
"[ 	c #F8F8F8",
"} 	c #F9F9F9",
"| 	c #9F9E7F",
"1 	c #A4A33A",
"2 	c #FFFEC5",
"3 	c #FFFED0",
"4 	c #FFFDA5",
"5 	c #FFFB7A",
"6 	c #FFF74E",
"7 	c #FFF523",
"8 	c #FFF300",
"9 	c #FFF500",
"0 	c #999504",
"a 	c #A6A595",
"b 	c #F5F47F",
"c 	c #FFFEA8",
"d 	c #FFEE00",
"e 	c #FAEC00",
"f 	c #FFFD67",
"g 	c #FFFC7F",
"h 	c #FFF77A",
"i 	c #FFF260",
"j 	c #FFEB3E",
"k 	c #FFE519",
"l 	c #FFE500",
"m 	c #FFEB00",
"n 	c #F5F5F5",
"o 	c #FFFB42",
"p 	c #FFF954",
"q 	c #FFF55B",
"r 	c #FFE941",
"s 	c #FFE026",
"t 	c #FFD600",
"u 	c #FFDC00",
"v 	c #FFE300",
"w 	c #FAF517",
"x 	c #FFF629",
"y 	c #FFF02F",
"z 	c #FFE92B",
"A 	c #FFC800",
"B 	c #FFC900",
"C 	c #FFD300",
"D 	c #F5D500",
"E 	c #F2F2F2",
"F 	c #A2A294",
"G 	c #99950C",
"H 	c #FFEB03",
"I 	c #FFE201",
"J 	c #FFB900",
"K 	c #FFBE00",
"L 	c #FFCD00",
"M 	c #A29110",
"N 	c #999996",
"O 	c #F1F1F1",
"P 	c #EFEFEF",
"Q 	c #D3C900",
"R 	c #FFEC00",
"S 	c #FFE200",
"T 	c #FFC200",
"U 	c #D3AE01",
"V 	c #EBEBEB",
"W 	c #F0F0F0",
"X 	c #E1E1E1",
"Y 	c #A3980D",
"Z 	c #F5DC00",
"` 	c #FAC900",
" .	c #98840F",
"..	c #EEEEEE",
"+.	c #E8E8E8",
"@.	c #979690",
"#.	c #9E9E9D",
"$.	c #ECECEC",
"%.	c #EDEDED",
". . . . . . . . . . . . . . ",
"+ + + + + + + + + + + + + + ",
"@ @ @ # $ % % % % & * @ @ @ ",
"@ @ = % - ; > , ' ) % ! @ @ ",
"# ~ % { ] ^ / ( _ : < % [ # ",
"} | 1 2 3 4 5 6 7 8 9 0 a } ",
"[ % b c % % % % % % d e % [ ",
"* % f g % h i j k % l m % * ",
"n % o p q % r s % t u v % n ",
"~ % w x y z % % A B C D % ~ ",
"E F G 8 H I t A J K L M N E ",
"O P % Q R S t B K T U % V O ",
"W W X % Y Z u C `  .% X W W ",
"......+.@.% % % % #.$.......",
"%.%.%.%.%.%.%.%.%.%.%.%.%.%.",
". . . . . . . . . . . . . . "};
