/* XPM */
static char * shade_inactive_xpm[] = {
"14 16 98 2",
"  	c None",
". 	c #747474",
"+ 	c #FFFFFF",
"@ 	c #FCFCFC",
"# 	c #FAFAFA",
"$ 	c #9C9C7E",
"% 	c #000000",
"& 	c #989883",
"* 	c #F6F6F6",
"= 	c #EAEAE4",
"- 	c #706F29",
"; 	c #B5B451",
"> 	c #B9B83C",
", 	c #B9B721",
"' 	c #B1AF05",
") 	c #777602",
"! 	c #ECECEC",
"~ 	c #F4F4F4",
"{ 	c #99985C",
"] 	c #B9B881",
"^ 	c #B9B86A",
"/ 	c #B9B74F",
"( 	c #B9B631",
"_ 	c #B9B513",
": 	c #B9B400",
"< 	c #999500",
"[ 	c #F8F8F8",
"} 	c #F9F9F9",
"| 	c #96967F",
"1 	c #77762A",
"2 	c #B9B88F",
"3 	c #B9B897",
"4 	c #B9B778",
"5 	c #B9B658",
"6 	c #B9B339",
"7 	c #B9B119",
"8 	c #B9B000",
"9 	c #B9B100",
"0 	c #706D04",
"a 	c #A1A195",
"b 	c #B1B15C",
"c 	c #B9B87A",
"d 	c #B9B780",
"e 	c #B9B66F",
"f 	c #B9AD19",
"g 	c #B9AB00",
"h 	c #B9AC00",
"i 	c #B5AB00",
"j 	c #B9B74B",
"k 	c #B9B75C",
"l 	c #B9B561",
"m 	c #B9AF46",
"n 	c #B9AA2D",
"o 	c #B9A400",
"p 	c #B9A600",
"q 	c #B9AA00",
"r 	c #F5F5F5",
"s 	c #B9B630",
"t 	c #B9B43D",
"u 	c #B9AE3D",
"v 	c #B9A92F",
"w 	c #B9A21C",
"x 	c #B99C04",
"y 	c #B99F00",
"z 	c #B5B111",
"A 	c #B9B21E",
"B 	c #B99900",
"C 	c #B19A00",
"D 	c #F2F2F2",
"E 	c #9E9E94",
"F 	c #726F0C",
"G 	c #B9AA02",
"H 	c #B9A401",
"I 	c #B99B00",
"J 	c #B99100",
"K 	c #B98600",
"L 	c #B98A00",
"M 	c #B99500",
"N 	c #7A6E10",
"O 	c #989896",
"P 	c #F1F1F1",
"Q 	c #EFEFEF",
"R 	c #999200",
"S 	c #B99200",
"T 	c #B98D00",
"U 	c #997E01",
"V 	c #EBEBEB",
"W 	c #F0F0F0",
"X 	c #E1E1E1",
"Y 	c #79710D",
"Z 	c #B19F00",
"` 	c #B59200",
" .	c #72640F",
"..	c #EEEEEE",
"+.	c #E8E8E8",
"@.	c #959590",
"#.	c #9E9E9D",
"$.	c #EDEDED",
". . . . . . . . . . . . . . ",
"+ + + + + + + + + + + + + + ",
"@ @ @ # $ % % % % & * @ @ @ ",
"@ @ = % - ; > , ' ) % ! @ @ ",
"# ~ % { ] ^ / ( _ : < % [ # ",
"} | 1 2 3 4 5 6 7 8 9 0 a } ",
"[ % b c d e % % f g h i % [ ",
"* % j k l % m n % o p q % * ",
"r % s t % u v w x % y o % r ",
"~ % z A % % % % % % B C % ~ ",
"D E F 8 G H I J K L M N O D ",
"P Q % R g o I S L T U % V P ",
"W W X % Y Z y B `  .% X W W ",
"......+.@.% % % % #.! ......",
"$.$.$.$.$.$.$.$.$.$.$.$.$.$.",
". . . . . . . . . . . . . . "};
