/* XPM */
static char * shade_active_xpm[] = {
"14 16 100 2",
"  	c None",
". 	c #747474",
"+ 	c #FFFFFF",
"@ 	c #FCFCFC",
"# 	c #FAFAFA",
"$ 	c #A8A87E",
"% 	c #000000",
"& 	c #A09F83",
"* 	c #F6F6F6",
"= 	c #EDEDE4",
"- 	c #9A9939",
"; 	c #FAF970",
"> 	c #FFFE53",
", 	c #FFFD2E",
"' 	c #F5F207",
") 	c #A4A202",
"! 	c #EDEDEC",
"~ 	c #F4F4F4",
"{ 	c #D3D27F",
"] 	c #FFFEB2",
"^ 	c #FFFE93",
"/ 	c #FFFD6D",
"( 	c #FFFB44",
"_ 	c #FFFA1A",
": 	c #FFF900",
"< 	c #D3CE00",
"[ 	c #F8F8F8",
"} 	c #F9F9F9",
"| 	c #9F9E7F",
"1 	c #A4A33A",
"2 	c #FFFEC5",
"3 	c #FFFED0",
"4 	c #FFFDA5",
"5 	c #FFFB7A",
"6 	c #FFF74E",
"7 	c #FFF523",
"8 	c #FFF300",
"9 	c #FFF500",
"0 	c #999504",
"a 	c #A6A595",
"b 	c #F5F47F",
"c 	c #FFFEA8",
"d 	c #FFFDB1",
"e 	c #FFFB99",
"f 	c #FFEF23",
"g 	c #FFEC00",
"h 	c #FFEE00",
"i 	c #FAEC00",
"j 	c #FFFD67",
"k 	c #FFFC7F",
"l 	c #FFFA86",
"m 	c #FFF260",
"n 	c #FFEB3E",
"o 	c #FFE200",
"p 	c #FFE500",
"q 	c #FFEB00",
"r 	c #F5F5F5",
"s 	c #FFFB42",
"t 	c #FFF954",
"u 	c #FFF054",
"v 	c #FFE941",
"w 	c #FFE026",
"x 	c #FFD706",
"y 	c #FFDC00",
"z 	c #FFE300",
"A 	c #FAF517",
"B 	c #FFF629",
"C 	c #FFD300",
"D 	c #F5D500",
"E 	c #F2F2F2",
"F 	c #A2A294",
"G 	c #99950C",
"H 	c #FFEB03",
"I 	c #FFE201",
"J 	c #FFD600",
"K 	c #FFC800",
"L 	c #FFB900",
"M 	c #FFBE00",
"N 	c #FFCD00",
"O 	c #A29110",
"P 	c #999996",
"Q 	c #F1F1F1",
"R 	c #EFEFEF",
"S 	c #D3C900",
"T 	c #FFC900",
"U 	c #FFC200",
"V 	c #D3AE01",
"W 	c #EBEBEB",
"X 	c #F0F0F0",
"Y 	c #E1E1E1",
"Z 	c #A3980D",
"` 	c #F5DC00",
" .	c #FAC900",
"..	c #98840F",
"+.	c #EEEEEE",
"@.	c #E8E8E8",
"#.	c #979690",
"$.	c #9E9E9D",
"%.	c #ECECEC",
"&.	c #EDEDED",
". . . . . . . . . . . . . . ",
"+ + + + + + + + + + + + + + ",
"@ @ @ # $ % % % % & * @ @ @ ",
"@ @ = % - ; > , ' ) % ! @ @ ",
"# ~ % { ] ^ / ( _ : < % [ # ",
"} | 1 2 3 4 5 6 7 8 9 0 a } ",
"[ % b c d e % % f g h i % [ ",
"* % j k l % m n % o p q % * ",
"r % s t % u v w x % y z % r ",
"~ % A B % % % % % % C D % ~ ",
"E F G 8 H I J K L M N O P E ",
"Q R % S g o J T M U V % W Q ",
"X X Y % Z ` y C  ...% Y X X ",
"+.+.+.@.#.% % % % $.%.+.+.+.",
"&.&.&.&.&.&.&.&.&.&.&.&.&.&.",
". . . . . . . . . . . . . . "};
