/* XPM */
static char * stick_inactive_xpm[] = {
"14 16 98 2",
"  	c None",
". 	c #747474",
"+ 	c #FFFFFF",
"@ 	c #FCFCFC",
"# 	c #FAFAFA",
"$ 	c #9C9C7E",
"% 	c #000000",
"& 	c #989883",
"* 	c #F6F6F6",
"= 	c #EAEAE4",
"- 	c #706F29",
"; 	c #B5B451",
"> 	c #B9B83C",
", 	c #B9B721",
"' 	c #B1AF05",
") 	c #777602",
"! 	c #ECECEC",
"~ 	c #F4F4F4",
"{ 	c #99985C",
"] 	c #B9B881",
"^ 	c #B9B86A",
"/ 	c #B9B631",
"( 	c #B9B513",
"_ 	c #B9B400",
": 	c #999500",
"< 	c #F8F8F8",
"[ 	c #F9F9F9",
"} 	c #96967F",
"| 	c #77762A",
"1 	c #B9B88F",
"2 	c #B9B897",
"3 	c #B9B778",
"4 	c #B9B658",
"5 	c #B9B119",
"6 	c #B9B000",
"7 	c #B9B100",
"8 	c #706D04",
"9 	c #A1A195",
"0 	c #B1B15C",
"a 	c #B9B87A",
"b 	c #B9B780",
"c 	c #B9B66F",
"d 	c #B9B355",
"e 	c #B9AB00",
"f 	c #B9AC00",
"g 	c #B5AB00",
"h 	c #B9B74B",
"i 	c #B9B75C",
"j 	c #B9B561",
"k 	c #B9B358",
"l 	c #B9AF46",
"m 	c #B9A600",
"n 	c #B9AA00",
"o 	c #F5F5F5",
"p 	c #B9B630",
"q 	c #B9B43D",
"r 	c #B9B142",
"s 	c #B9AE3D",
"t 	c #B9A21C",
"u 	c #B99C04",
"v 	c #B99B00",
"w 	c #B9A400",
"x 	c #B5B111",
"y 	c #B9B21E",
"z 	c #B9AE22",
"A 	c #B9A116",
"B 	c #B99706",
"C 	c #B99100",
"D 	c #B99200",
"E 	c #B99900",
"F 	c #B19A00",
"G 	c #F2F2F2",
"H 	c #9E9E94",
"I 	c #726F0C",
"J 	c #B9A401",
"K 	c #B98600",
"L 	c #B98A00",
"M 	c #B99500",
"N 	c #7A6E10",
"O 	c #989896",
"P 	c #F1F1F1",
"Q 	c #EFEFEF",
"R 	c #999200",
"S 	c #B98D00",
"T 	c #997E01",
"U 	c #EBEBEB",
"V 	c #F0F0F0",
"W 	c #E1E1E1",
"X 	c #79710D",
"Y 	c #B19F00",
"Z 	c #B99F00",
"` 	c #B59200",
" .	c #72640F",
"..	c #EEEEEE",
"+.	c #E8E8E8",
"@.	c #959590",
"#.	c #9E9E9D",
"$.	c #EDEDED",
". . . . . . . . . . . . . . ",
"+ + + + + + + + + + + + + + ",
"@ @ @ # $ % % % % & * @ @ @ ",
"@ @ = % - ; > , ' ) % ! @ @ ",
"# ~ % { ] ^ % / ( _ : % < # ",
"[ } | 1 2 3 4 % 5 6 7 8 9 [ ",
"< % 0 a b c d % % e f g % < ",
"* % h i j k l % % % m n % * ",
"o % p q r s % t u v % w % o ",
"~ % x y z % A B C D E F % ~ ",
"G H I 6 % J v C K L M N O G ",
"P Q % R e w v D L S T % U P ",
"V V W % X Y Z E `  .% W V V ",
"......+.@.% % % % #.! ......",
"$.$.$.$.$.$.$.$.$.$.$.$.$.$.",
". . . . . . . . . . . . . . "};
