/* XPM */
static char * stick_active_xpm[] = {
"14 16 100 2",
"  	c None",
". 	c #747474",
"+ 	c #FFFFFF",
"@ 	c #FCFCFC",
"# 	c #FAFAFA",
"$ 	c #A8A87E",
"% 	c #000000",
"& 	c #A09F83",
"* 	c #F6F6F6",
"= 	c #EDEDE4",
"- 	c #9A9939",
"; 	c #FAF970",
"> 	c #FFFE53",
", 	c #FFFD2E",
"' 	c #F5F207",
") 	c #A4A202",
"! 	c #EDEDEC",
"~ 	c #F4F4F4",
"{ 	c #D3D27F",
"] 	c #FFFEB2",
"^ 	c #FFFE93",
"/ 	c #FFFB44",
"( 	c #FFFA1A",
"_ 	c #FFF900",
": 	c #D3CE00",
"< 	c #F8F8F8",
"[ 	c #F9F9F9",
"} 	c #9F9E7F",
"| 	c #A4A33A",
"1 	c #FFFEC5",
"2 	c #FFFED0",
"3 	c #FFFDA5",
"4 	c #FFFB7A",
"5 	c #FFF523",
"6 	c #FFF300",
"7 	c #FFF500",
"8 	c #999504",
"9 	c #A6A595",
"0 	c #F5F47F",
"a 	c #FFFEA8",
"b 	c #FFFDB1",
"c 	c #FFFB99",
"d 	c #FFF775",
"e 	c #FFEC00",
"f 	c #FFEE00",
"g 	c #FAEC00",
"h 	c #FFFD67",
"i 	c #FFFC7F",
"j 	c #FFFA86",
"k 	c #FFF77A",
"l 	c #FFF260",
"m 	c #FFE500",
"n 	c #FFEB00",
"o 	c #F5F5F5",
"p 	c #FFFB42",
"q 	c #FFF954",
"r 	c #FFF55B",
"s 	c #FFF054",
"t 	c #FFE026",
"u 	c #FFD706",
"v 	c #FFD600",
"w 	c #FFE300",
"x 	c #FAF517",
"y 	c #FFF629",
"z 	c #FFF02F",
"A 	c #FFDE1E",
"B 	c #FFD008",
"C 	c #FFC800",
"D 	c #FFC900",
"E 	c #FFD300",
"F 	c #F5D500",
"G 	c #F2F2F2",
"H 	c #A2A294",
"I 	c #99950C",
"J 	c #FFE201",
"K 	c #FFB900",
"L 	c #FFBE00",
"M 	c #FFCD00",
"N 	c #A29110",
"O 	c #999996",
"P 	c #F1F1F1",
"Q 	c #EFEFEF",
"R 	c #D3C900",
"S 	c #FFE200",
"T 	c #FFC200",
"U 	c #D3AE01",
"V 	c #EBEBEB",
"W 	c #F0F0F0",
"X 	c #E1E1E1",
"Y 	c #A3980D",
"Z 	c #F5DC00",
"` 	c #FFDC00",
" .	c #FAC900",
"..	c #98840F",
"+.	c #EEEEEE",
"@.	c #E8E8E8",
"#.	c #979690",
"$.	c #9E9E9D",
"%.	c #ECECEC",
"&.	c #EDEDED",
". . . . . . . . . . . . . . ",
"+ + + + + + + + + + + + + + ",
"@ @ @ # $ % % % % & * @ @ @ ",
"@ @ = % - ; > , ' ) % ! @ @ ",
"# ~ % { ] ^ % / ( _ : % < # ",
"[ } | 1 2 3 4 % 5 6 7 8 9 [ ",
"< % 0 a b c d % % e f g % < ",
"* % h i j k l % % % m n % * ",
"o % p q r s % t u v % w % o ",
"~ % x y z % A B C D E F % ~ ",
"G H I 6 % J v C K L M N O G ",
"P Q % R e S v D L T U % V P ",
"W W X % Y Z ` E  ...% X W W ",
"+.+.+.@.#.% % % % $.%.+.+.+.",
"&.&.&.&.&.&.&.&.&.&.&.&.&.&.",
". . . . . . . . . . . . . . "};
