/* XPM */
static char * title_4_active_xpm[] = {
"1 16 15 1",
" 	c None",
".	c #747474",
"+	c #FFFFFF",
"@	c #FCFCFC",
"#	c #FAFAFA",
"$	c #F9F9F9",
"%	c #F8F8F8",
"&	c #F6F6F6",
"*	c #F5F5F5",
"=	c #F4F4F4",
"-	c #F2F2F2",
";	c #F1F1F1",
">	c #F0F0F0",
",	c #EEEEEE",
"'	c #EDEDED",
".",
"+",
"@",
"@",
"#",
"$",
"%",
"&",
"*",
"=",
"-",
";",
">",
",",
"'",
"."};
