/* XPM */
static char * title_1_active_xpm[] = {
"1 16 3 1",
" 	c None",
".	c #747474",
"+	c #FFFFFF",
" ",
" ",
" ",
" ",
" ",
" ",
" ",
" ",
" ",
" ",
" ",
" ",
" ",
".",
"+",
"."};
