/* XPM */
static char * top_left_active_xpm[] = {
"3 16 3 1",
" 	c None",
".	c #747474",
"+	c #FFFFFF",
"   ",
"   ",
"   ",
"   ",
"   ",
"   ",
"   ",
"   ",
"   ",
"   ",
"   ",
"   ",
"   ",
"...",
".++",
".+."};
